<?xml version="1.0" encoding="utf-8"?>
<!-- Generator: Adobe Illustrator 24.0.1, SVG Export Plug-In . SVG Version: 6.00 Build 0)  -->
<svg version="1.1" id="Layer_1" xmlns="http://www.w3.org/2000/svg" xmlns:xlink="http://www.w3.org/1999/xlink" x="0px" y="0px"
	 viewBox="0 0 1400 400" style="enable-background:new 0 0 1400 400;" xml:space="preserve">
<style type="text/css">
	.st0{display:none;fill:#F8E338;}
	.st1{display:none;fill:#F1BE39;}
	.st2{display:none;fill:#ED2024;}
	.st3{fill:#40403F;}
	.st4{fill:#93268A;}
</style>
<image style="display:none;overflow:visible;" width="692" height="976" xlink:href="3CF6A9B0.jpg"  transform="matrix(1 0 0 1 1576.5288 -675.369)">
</image>
<path class="st0" d="M0,396.7c388.2,35.6,1120.6-234.6,1400-130.1V68.5H0L0,396.7z"/>
<path class="st1" d="M0,396.7c388.2,35.6,1120.6-261.1,1400-156.7V41.9H0L0,396.7z"/>
<path class="st2" d="M0,396.7c388.2,35.6,1120.6-303.1,1400-198.6V0H0L0,396.7z"/>
<path class="st3" d="M0,147.7c0,0,290.1-166.4,610.4-90.7s632.2,90.7,789.6,7.6V396H0V147.7z"/>
<path class="st4" d="M0,151.7c0,0,290.1-166.4,610.4-90.7s632.2,90.7,789.6,7.6V400H0V151.7z"/>
</svg>
