<?xml version="1.0" encoding="utf-8"?>
<!-- Generator: Adobe Illustrator 24.0.1, SVG Export Plug-In . SVG Version: 6.00 Build 0)  -->
<svg version="1.1" id="Layer_1" xmlns="http://www.w3.org/2000/svg" xmlns:xlink="http://www.w3.org/1999/xlink" x="0px" y="0px"
	 viewBox="0 0 1400 1400" style="enable-background:new 0 0 1400 1400;" xml:space="preserve">
<style type="text/css">
	.st0{fill:#FFFFFF;}
	.st1{fill:#1B9AB3;}
	.st2{fill:#59B4C6;}
	.st3{fill:#203B72;}
	.st4{fill:#0BA0B9;}
	.st5{display:none;}
	.st6{display:inline;}
	.st7{font-family:'Montserrat-BoldItalic';}
	.st8{font-size:128.3967px;}
	.st9{font-family:'Montserrat-SemiBoldItalic';}
	.st10{font-size:99.314px;}
	.st11{fill:#03A0B9;}
	.st12{font-family:'CenturyGothic-Bold';}
	.st13{font-size:61.1163px;}
	.st14{letter-spacing:4;}
	.st15{display:inline;fill:none;stroke:#03A0B9;stroke-width:2;stroke-miterlimit:10;}
</style>
<circle class="st0" cx="700" cy="700.5" r="700"/>
<g>
	<path class="st1" d="M1069.1,790.4c-8.2,0.8-16.5,0.5-24.5,3c0,0,0,0,0,0c-6.3,0-12.5,0.9-18.5,2.5c-0.9,0.2-1.9,0.5-2.8,0.8
		c-8.7,0-16.6,3.8-25,5c-6.4,1-10.1,4.1-10.5,10.8c-2,4.5-3.9,9-5.9,13.5c0,0,0,0,0,0c-11.4,26-22.4,52.3-34.3,78.1
		c-17,36.8-35.2,73-56.1,107.8c-2.9,1.3-4.2,4.1-5.6,6.7c-9.4,16.9-20.2,33-30,49.6c-4.1,6.9-10.5,12.4-12.6,20.4
		c0.1,0.3,0.1,0.7,0,1c-6.5,2.5-8,9.4-11.7,14.3c-1.9,3.4-4.2,6.6-6.3,9.8c-1.2,2.1-2.9,3.8-4.3,5.7c-0.9,1.7-1.9,3.3-4.1,3.5
		c-6.1,6.8-10.5,14.9-16.3,21.9c-8.3,9.7-15.3,20.6-25.7,28.3c-2.7,2-4.8,4.9-5.6,8.4c0.3,3.8-0.6,7.7,0.6,11.4
		c0.6,5.2,3.9,8.4,8.4,10.6l0,0c8,4.9,16,4.1,24.1,0.2h0c7.5-1.7,13.8-5.9,19.6-10.5c28.3-22.1,51.1-49.5,72.7-77.8c0,0,0,0,0,0
		c1.4-1.6,3-3.1,4.3-4.8c38.3-50,72.1-102.9,101.7-158.5c21.8-41,41.6-83,58.6-126.2c0.3-0.4,0.5-0.8,0.6-1.2
		c2.5-4.8,4.4-9.8,5.8-15.1c2.2-5.1,4.3-10.3,6.7-15.4C1073.9,790.7,1072.1,790,1069.1,790.4z"/>
	<path class="st2" d="M619.5,1179.2c-1.7-1.4-3.5-2.8-5.8-2.8c0.4-2.3-1.1-3.8-2.5-5.4c-1.3-1.3-2.6-2.6-3.8-3.9
		c-5.6-5.7-11.4-11.2-16.9-17.1c-1.6-1.8-2.8-4.1-5.3-5c-0.8-0.1-1.5-0.5-2-0.9c-0.9-1.1-1.8-2.2-2.6-3.4c0,0,0,0-0.1,0
		c-0.1-0.1-0.1-0.2-0.2-0.3c-2.1-2.7-4.8-5-6.5-8.1c-1.9-2.6-4.4-4.6-6-7.4c-4.6-6.7-10.2-12.6-14.8-19.2
		c-17.4-22.5-32.6-46.5-46.7-71.2c-1.7-3-3.1-6.3-6.4-8.1c-11.3-20.1-21.1-40.9-30.2-62.1C459.4,940,451,915.2,442,890.5
		c-1.6-6.2-3-12.3-5.5-18.2c-0.1-0.5-0.3-1-0.7-1.6c-2-9.8-4.8-19.3-8.2-28.7c-1-6.3-2.2-12.5-4.6-18.4c0,0,0,0,0,0
		c-3.9-22.7-9.8-45.1-12.5-68.1c-0.5-4.2-3-4.4-6.2-4c-29.1,3.8-57.8,9.6-85.7,19.3c-5,1.8-5.3,4-3.7,8.2c2.8,7.3,5.3,14.7,7.8,22
		c37.9,109.1,87.3,212.2,158.2,304.2c22.7,29.5,46.7,57.8,75.7,81.4c11.5,9.4,23.5,18,39,19.9c13.6,1.7,23.8-6.2,24.4-19
		C619.7,1184.8,619.6,1182,619.5,1179.2z"/>
	<g>
		<g>
			<path class="st3" d="M1206.5,804.7L1206.5,804.7c-1.9-3.9-4.3-7.4-8.2-9.6c0,0,0,0,0,0c0,0,0,0,0,0c-3.2-6.3-8.5-10.8-14.2-14.7
				c-4.9-5.1-10.2-9.7-16.9-12.5c0,0,0,0,0,0c0,0,0,0,0,0c-3-3-6.2-5.8-10.5-6.9c-5.7-4.1-12.1-6.8-18.6-9.3c0,0,0,0,0,0
				c0,0,0,0,0,0c-3.9-2.5-8.1-4.2-12.7-5c0,0,0,0,0,0c-3.1-1.9-6.3-3.2-9.9-3.1c0,0,0,0,0,0c0,0,0,0,0,0
				c-13.5-5.4-27.6-7.9-41.9-9.2c-31.8-3-63.2-1.7-93.7,9.2c-2.2-0.9-7.6,4.7-6.3-3.2c1.5-1.9,1.6-4.2,1.7-6.5
				c5.6-16.3,9.5-33,12.9-49.8c0,0,0,0,0,0c0,0,0,0,0,0c1.5-2,1.8-4.4,1.5-6.8c1.8-7.4,3.7-14.8,5.3-22.3
				c3.6-16.4,6.9-32.9,10.7-49.2c4.5-19.4,8.3-38.9,10.1-58.8c0,0,0,0,0,0c0,0,0,0,0,0c1.3-2.2,1.4-4.6,1.1-7.1
				c2-12.3,3.5-24.7,3.3-37.2c1.1-10.7,1.3-21.5,0-32.2c0.4-13.4-2-26.5-6.1-39.2c-0.7-6.9-3.1-13.1-6.7-19c0.1-1.4-0.6-2.4-1.6-3.2
				c-0.3-2.1-1.4-3.8-3.1-5.1v0c-0.9-3-2.7-5.5-5-7.6c-2.3-4.1-5.4-7.5-9.4-10c-1.9-3.5-5.8-4.3-8.8-6.4c-3.4-3.5-7.7-5.4-12.4-6.5
				c0,0,0,0,0,0c0,0,0,0,0,0c-9.2-4.5-19-5.7-29.1-4.9c-5.7-0.3-11.5-0.6-17,1.6c0,0,0,0,0,0c0,0,0,0,0,0
				c-8.4,0.2-16.1,2.8-23.5,6.4c-10.8,3-20.6,8.3-30,14.3c0,0,0,0,0,0c-0.1-0.1-0.4,0.3-0.7,0.4c0,0,0,0,0,0l0,0
				c-31.3,18-58.6,41.4-87.1,63.2c-12.1,9-24.2,18-36.2,27c-12.2,8.2-24.3,16.5-36.5,24.7c0,0,0,0,0,0l0,0c-3.3,1.5-6.2,3.4-8.8,5.9
				c-0.5-0.2-0.8,0-1,0.5v0c0,0,0,0,0,0c-19.6,11.6-39.2,23.3-58.8,34.9c-0.3,0.1-0.6,0.3-0.9,0.5c0,0,0,0,0,0c0,0,0,0,0,0
				c-4.3,2.2-8.6,4.5-12.9,6.7v0c-4.4,2.4-8.9,4.8-13.3,7.1c-0.4,0.1-0.9,0.3-1.2,0.7c0,0,0,0,0,0c-24.2,11.3-48.5,22.6-72.7,33.9
				c-4.1,1-8,2.5-11.6,4.7c0,0,0,0,0,0c-12.1,4.3-24.2,8.6-36.2,13c-30,10.9-61.1,18-91.7,27.2c-21.8,5.1-43.3,11.2-64.1,19.6
				c0,0,0,0,0,0c0,0,0,0,0,0c-5.8,1.4-11.3,3.5-16.5,6.3c-4,0.7-7.7,2.4-11.1,4.7c-4.1,0.9-7.8,2.8-11.2,5.2
				c-5.8,1.7-11.2,4.5-16.1,8c-6.6,2.9-12.8,6.5-18.3,11.1h0c-3.6,1.3-6.9,3.2-9.3,6.4c-3.7,2.3-7.4,4.7-10.3,8.1h0
				c-21.5,17.4-37.6,38.8-47.9,64.5c-3.2,5.7-5.3,11.7-6.5,18.1c-2,3.9-2.9,8.2-3.2,12.5c-1.6,3.4-2,6.9-2.2,10.8
				c2.8-1,3.6-3.1,4-5.5c0,0,0,0,0,0c0,0,0,0,0,0c2.7-4.7,5.5-9.4,8.2-14.1c4.3-5.5,8.6-11,12.9-16.5h0c0,0,0,0,0,0
				c19.7-21.4,43.7-37,69.3-50.3c2.2-1,4.4-2,6.6-3c6.4-2.7,12.8-5.4,19.2-8.1c3-0.3,5.7-1.3,8.2-3.1h0c1.9,0.2,3.6-0.5,5-1.7h0
				c24.9-7,49.7-13.9,74.6-20.9c7.6-0.8,14.9-2.8,22.1-5.1c5.5,0.5,14.6-6.8,14.4,6.5l0,0c0,6.7-0.5,13.4,1.5,20
				c0.2,2.5,0.3,5,0.5,7.5c-0.2,3.5-0.5,7,1.3,10.2c0,0,0,0,0,0c0.1,1.4,0.2,2.9,0.3,4.3c0,0,0,0,0,0c-0.1,3.5-0.3,7,1.3,10.3
				c0,0,0,0,0,0c0.1,1.4,0.2,2.8,0.3,4.2c-0.2,2.9-0.4,5.9,1.3,8.6c0,0,0,0,0,0c0.1,0.9,0.2,1.8,0.2,2.7c-0.2,3.1-0.3,6.1,1.4,8.9
				c0,0,0,0,0,0c0,0,0,0,0,0c0.1,0.8,0.2,1.6,0.2,2.4c-0.1,2.8-0.2,5.6,1.4,8.2l0,0c-0.1,2.9-0.1,5.9,1.5,8.5c0,0,0,0,0,0
				c0.2,9.3,2.7,18.1,5.2,26.9c0.3,4.6,1.1,9,2.9,13.2c0,0,0,0,0,0c1.3,11.6,4.3,22.7,8.2,33.6c0.9,6.2,2.4,12.2,4.7,18c0,0,0,0,0,0
				c1.9,12.9,7.1,24.8,11,37.1c2.2,6.2,3.4,12.7,6.7,18.4l0,0c0,0,0,0,0,0c0.5,1.8,0.8,3.6,1.4,5.3c7.1,18.9,14.3,37.7,21.5,56.6
				c0.8,1.3,0.1,2.8,0.6,4.2c0.2,0.5,0.3,1.1,0.5,1.6c-0.2,1.9,0.3,3.3,1.6,4.2c0.3,0.8,0.7,1.7,1.1,2.5
				c14.4,32.1,30.8,63.2,49.9,92.7c3.5,4,5.7,9,10.1,12.1c0.2,0.1,0.3,0.1,0.5,0.2c-0.3,3.3,2.8,5,4.3,7.4c1.5,3.3,4.4,5.4,6.8,8
				c0.6,0.3,1.3,0.4,2,0.3c0,0,0.1,0,0.1,0c-0.1,0-0.2,0.1-0.2,0.1c-1.5,4.2,3.3,4.9,4.3,7.7c0.7,2.2,2,3.6,4.1,4.4
				c1.6,1.6,3.2,3.3,4.8,4.9c0,0,0,0,0,0v0c5,6.8,11.1,12.5,17.5,18c1.1,1.1,2.3,2.1,3.4,3.2c0,0,0,0,0,0c1.1,1.6,2.2,3.2,3.3,4.8
				c1.8,1.6,3.8,2.6,6.2,2.8c0.6-1.9-1.2-3-1.6-4.5c0,0,0,0,0,0c0,0,0,0,0,0c-1-7.6-0.6-15.4-2.5-23c-0.1-0.5-0.2-1.1-0.4-1.6
				c-1.2-12.8-2.4-25.6-3.6-38.4c-0.6-22.1-0.4-44.2,1.5-66.2c0.2-2,0.4-4,0.6-6c0-0.1,0-0.2,0-0.3c1.7-3,1.5-6.4,1.6-9.7
				c5.6-29.1,14.9-57.1,27.2-84.1l0,0c4.2-2.7,6.2-7,8.5-11.2c6.7-7.8,13.8-15.2,22.2-21.3c2.8-1.5,5.7-3,8.5-4.5v0
				c13.7-5.1,26.8-3.1,39.5,3.4l0,0c0,0,0,0,0,0c0.7,0.4,1.4,0.9,2.1,1.3h0l0,0c5.9,5.5,11.8,10.9,17.8,16.4c2.7,3.7,5.4,7.4,8.1,11
				c9.7,17.6,17.6,35.9,21.9,55.7c2.5,11.7,4.6,23.6,6.9,35.4c0,0,0,0,0,0c0,0,0,0,0,0c0.5,18.5,2.6,37,1.4,55.5
				c-0.9,15.5-2,31.1-2.9,46.6c-0.5,1.4-0.6,2.8-0.6,4.2c-2,13.3-3.9,26.6-5.9,39.9c-0.2,0-0.3,0.2-0.3,0.6c0,0.1,0,0.2,0.1,0.3
				c-1.4,4.7-1.7,9.5,0.3,14.2c0.2-4.6,0.3-9.2,0.5-13.9c0,0,0,0,0,0c0,0,0,0,0,0c12.8-9,22.7-20.8,31.7-33.6c0,0,0,0,0,0
				c0,0,0,0,0,0c5.5-7.5,11-15,16.5-22.5c0,0,0,0,0,0c3.1,1.3,2.8-1.3,3.3-2.9c0,0,0,0,0,0c2.1-1.3,3.7-3,4.6-5.3c0,0,0,0,0,0
				c2.1-3.3,4.3-6.5,6.4-9.8c-0.2-0.3-0.5-0.5-0.7-0.8c0.2-0.3,0.4-0.6,0.5-0.9c2.2-3.4,4.1-6.9,6.2-10.3
				c8.6-14.1,17.2-28.3,23.1-43.9c0.1-0.9,0.1-1.8,0.1-2.7c2-3.3,3.7-6.7,4.8-10.4c0.2-0.1,0.5-0.2,0.8-0.2c2.2-2.2,3.3-5,4-8
				c0-0.5-0.1-1-0.1-1.5c1.6-2.5,3-5.1,3.5-8.2c0.3-0.1,0.5-0.2,0.8-0.3c2.4-3.2,4.5-6.5,4.3-10.8c0.6,0.1,1-0.2,1.4-0.7
				c1.7-4.8,3.4-9.5,5.1-14.3c1.5-3.1,3.2-6.1,4.5-9.3c12.2-30,24.9-59.7,34.5-90.7c3.9-10,9.6-19.5,9.3-30.8
				c0.4-0.3,0.5-0.7,0.3-1.1c0,0,0,0,0,0c0,0,0,0,0,0c0.6-0.5,1.3-0.9,1.6-1.5c7.3-15.5,11.1-32.2,16.2-48.5
				c1.8-5.6,4.3-8.9,10.2-10.9c22.9-7.8,46.3-13.5,70.1-17.6v0c6.5-0.8,12.9-1.7,19.4-2.5l0,0c17.3-0.1,34.5-0.1,51.8-0.2
				c0,0,0,0,0,0c0,0,0,0,0,0l0.7,0.3l0.7-0.2c0,0,0.1,0,0.1,0c3.1,1.5,6.4,1.5,9.7,1.4c16,2.4,31.5,6.6,46.9,11.5
				c7,3.2,14,6.4,21,9.6c5.4,3.2,10.7,6.4,16.1,9.6c6.4,5.2,12.7,10.3,19.1,15.5C1216.4,818.3,1212.3,811,1206.5,804.7z
				 M753.3,746.9C753.3,746.9,753.3,746.9,753.3,746.9C753.2,746.9,753.2,746.9,753.3,746.9C753.2,746.9,753.3,746.9,753.3,746.9z
				 M483.4,745.6C483.4,745.6,483.4,745.6,483.4,745.6c0.1-0.1,0.2-0.2,0.3-0.3c0,0,0,0,0,0C483.6,745.5,483.5,745.6,483.4,745.6z
				 M550.3,935.7C550.3,935.7,550.3,935.7,550.3,935.7C550.3,935.7,550.3,935.7,550.3,935.7C550.3,935.7,550.3,935.7,550.3,935.7z
				 M615.1,629.6c-10.1,0.8-17.3,1.8-21.7,2.8c-4.4,1.1-7.1,3.1-8.2,6.3c-1.1,3.1-1.6,8.5-1.6,16.1V817c0,17.2-1.7,31.8-5,43.8
				c-3.4,12-8.4,22.3-15.1,30.9c-6.5,8.2-14.1,14.4-22.7,18.6c-8.6,4.2-17.5,6.3-26.8,6.3c-7.3,0-14.1-1.6-20.2-4.7
				c-6.1-3.1-9.1-8.3-9.1-15.4c0-5.5,1.9-9.7,5.7-12.8c3.8-3,8.4-4.6,13.9-4.6c5.9,0,11.2,1.8,16.1,5.5c4.8,3.7,8.9,8.8,12.3,15.3
				c5.7-1.7,9.7-5.7,12-12c2.3-6.3,3.7-14.2,4.1-23.8c0.4-9.6,0.6-20.2,0.6-32V658.9c0-8.8-0.5-15.1-1.6-18.9
				c-1.1-3.8-3.7-6.2-8-7.4c-4.3-1.2-11.5-2.2-21.6-3c-0.6-3.1-0.6-6.5,0-10.1c4.2,0,9.3,0.1,15.3,0.2c6,0.1,12,0.2,18.1,0.3
				c6.1,0.1,11.2,0.2,15.4,0.2c4.4,0,9.6,0,15.4-0.2c5.9-0.1,11.7-0.2,17.5-0.3c5.8-0.1,10.9-0.2,15.3-0.2
				C615.5,622.6,615.5,626,615.1,629.6z M645.5,848.5C645.5,848.5,645.6,848.5,645.5,848.5c0.1,0,0.1,0,0.1,0.1
				C645.6,848.6,645.6,848.5,645.5,848.5z M845.7,847.2c0-0.1,0-0.1-0.1-0.2c0.1,0,0.1,0,0.2,0C845.8,847.1,845.7,847.1,845.7,847.2
				z M869.6,1017.5C869.6,1017.5,869.6,1017.5,869.6,1017.5c0.1,0,0.1,0.1,0.1,0.1C869.7,1017.6,869.6,1017.6,869.6,1017.5z
				 M870.2,1018c-0.1-0.1-0.2-0.1-0.2-0.2C870,1017.9,870.1,1017.9,870.2,1018C870.2,1018,870.2,1018,870.2,1018z M912.7,840.6
				c-1.7,0-4.8-0.1-9.3-0.2c-4.5-0.1-9.5-0.2-14.8-0.2c-5.4,0-10.3,0-14.8-0.2c-4.5-0.1-7.6-0.2-9.3-0.2c-1.7,0-4.7,0.1-9.1,0.2
				c-4.4,0.1-9.2,0.2-14.5,0.2c-5.3,0-10.1,0-14.5,0.2c-4.4,0.1-7.5,0.2-9.1,0.2c-0.2-3.1-0.2-6.4,0-9.8h0.6c9.2-1,16-2,20.2-3
				c4.2-0.9,6.8-3,7.7-6.3c0.9-3.3,1.4-8.6,1.4-15.9l-2.8-168.8L765,840c-1.5,0.6-3.8,1-6.9,1.3c-3.2,0.2-5.9,0.3-8.2,0.3
				l-74.7-198.1l-5,162.2c-0.2,6.9,0.1,11.9,0.9,15c0.8,3,3.4,5.2,7.6,6.5c4.2,1.3,11.2,2.5,21.1,3.8c0.8,3.4,0.8,6.6,0,9.8
				c-2.1,0-5.7-0.1-10.9-0.2c-5.1-0.1-10.3-0.2-15.4-0.3c-5.1-0.1-8.9-0.2-11.2-0.2c-1.3,0-3.7,0.1-7.4,0.2
				c-3.7,0.1-7.7,0.2-12.1,0.2c-4.4,0-8.5,0-12.1,0.2c-3.7,0.1-6.1,0.2-7.4,0.2c-0.4-3.4-0.4-6.6,0-9.8c9.9-1.3,16.9-2.5,21.1-3.8
				c4.2-1.3,6.9-3.8,8-7.6c1.2-3.8,1.8-9.8,2-18l6-147.1c0.4-7.3,0.1-12.6-0.9-15.7c-1.1-3.2-3.8-5.3-8.3-6.5
				c-4.5-1.2-11.9-2.2-22.2-3c-0.2-3.4-0.2-6.6,0-9.8c7.1,0,14.5,0.1,22,0.3c7.6,0.2,16,0.3,25.2,0.3c3.1,0,7.3,0,12.6,0
				c5.2,0,10.1-0.1,14.5-0.3l65.2,172.6l67.4-172.6c4.4,0.2,9,0.3,13.9,0.3c4.8,0,8.9,0,12.3,0c1.7,0,4.8,0,9.3-0.2
				c4.5-0.1,9.5-0.2,14.8-0.2c5.4,0,10.3,0,14.8-0.2c4.5-0.1,7.6-0.2,9.3-0.2c0.6,3.1,0.6,6.4,0,9.8h-0.6c-9.7,1.1-16.7,2-21.1,3
				c-4.4,0.9-7.1,3-8,6.3c-0.9,3.3-1.4,8.6-1.4,15.9l2.5,147.1c0,6.5,0.2,11.7,0.6,15.4c0.4,3.8,1.6,6.5,3.5,8.2
				c1.9,1.7,4.9,2.9,9.1,3.6c4.2,0.7,10.2,1.4,18,2C913.4,834,913.4,837.3,912.7,840.6z"/>
			<path class="st3" d="M878,620.7c0.1,0,0.1,0,0.2,0c0,0,0-0.1-0.1-0.1C878.1,620.6,878,620.6,878,620.7z"/>
		</g>
	</g>
	<g>
		<path class="st4" d="M1152.9,370c-7.5-43-23.6-82-54.8-113.8c-23.8-24.2-51.9-40.6-85.3-47.7c-1.2-0.5-2.4-1.2-3.7-1.5
			c-27.8-7-55.9-6.6-84.1-4.2c-13,1.1-26.1,2.5-38.6,7c-0.3,0.1-0.5,0.2-0.8,0.3c-5.7,0.1-11,2.2-16.4,3.8
			c-26.7,7.7-51,21.4-76.5,31.9c-31.9,13.2-64.8,20.6-99.7,18.1c-26.8-1.9-51.3-10.8-75.5-21.4c-19.7-8.6-38.4-19.3-59-25.8
			c-26.9-11.5-54.7-19.5-84.2-20.8c0,0,0,0,0,0c-16.8-3-33.6-2-50.4-0.1c-27.1,3-53,9.9-77.1,22.9c-4.5,2.4-9.1,4.6-13.4,7.2
			c-33.8,20.9-58.7,49.4-73.8,86.3c0,0,0,0,0,0c-17.2,35.8-21.2,74.1-20.4,113.1c0.6,29.8,4.3,59.5,8.9,89
			c4.4,28.1,9.4,56.1,16.3,83.7c0.4,4.6,1.1,9.1,3,13.3c-0.6,3.3,0.8,6.2,1.6,9.3c4.6,16.8,4.6,16.8,19.5,6.4l0,0
			c4.9-2.6,9.8-5.2,14.7-7.8l0,0c38.7-18.5,79.4-31.3,120.4-43.1c108.4-31.3,208.4-80.3,300.8-144.9c35.9-25.1,70.1-52.7,107.2-76.2
			c31.4-19.9,64-36.2,102.2-38.3c50.7-2.7,89.1,17.5,115.2,60.9c17.2,28.7,22.9,60.6,24.3,93.4c1.7,39.7-3.9,78.8-12,117.5
			c-5.5,26-12.2,51.7-18.3,77.5c-1.8,5.9-3.4,11.8-5.5,17.6c-1.4,3.8-0.1,4.8,3.5,4.7c13.5-0.4,26.9,0.9,40.2,2.1c0,0,0.1,0,0.1,0
			c0,0,0,0,0,0c5.2,1.3,10.3,2.5,15.5,3.9c10.7,2.7,10.7,2.8,13.9-8c15.1-52.1,29.2-104.6,38.3-158.2
			C1157.8,475.6,1162.2,422.9,1152.9,370z M611,326.7c-32.4,2.5-64.4-1.9-96.5-4.2c-30.2-2.1-60.2-2-89.1,8.9
			c-3.2,1.2-6.2,3-9.3,4.5c-6.3,5.6-13.7,9.4-21.2,13c-22.6,16.7-34,40.5-41.1,66.6c-9,33.1-8.9,66.9-6,100.8
			c0.8,8.8,1.6,17.7,2.4,26.5c0.6,1.6,1.4,3.2-1.5,3.1c-14.1-41.5-24.5-83.6-21.3-127.8c4.8-66.1,44-110.6,109-120.7
			c36-5.6,71.1,0.8,106.1,9c32.2,7.6,64.5,14.3,98,13.9C635.8,323.4,624.1,325.6,611,326.7z M1070.2,686.8c0.1-0.4,0.3-0.6,0.5-0.8
			c0,0.3,0.1,0.6,0.1,0.8C1070.6,686.8,1070.4,686.8,1070.2,686.8z"/>
		<path class="st4" d="M1081.3,690.4C1081.3,690.4,1081.2,690.4,1081.3,690.4C1081.4,690.8,1081.3,690.7,1081.3,690.4z"/>
	</g>
</g>
<g class="st5">
	<text transform="matrix(1.0813 0 0 1 325.0123 1080.8057)" class="st6"><tspan x="0" y="0" class="st3 st7 st8">JM</tspan><tspan x="192.1" y="0" class="st3 st9 st8"> </tspan><tspan x="227.5" y="0" class="st3 st9 st10">Hospital</tspan></text>
	<g class="st6">
		<text transform="matrix(1 0 0 1 463.7188 1182.8311)" class="st11 st12 st13 st14">&amp; Dental Care</text>
	</g>
	<line class="st15" x1="315.2" y1="1162.2" x2="429.8" y2="1162.2"/>
	<line class="st15" x1="999.6" y1="1162.2" x2="1125.3" y2="1162.2"/>
</g>
</svg>
